<svg width="14" height="18" viewBox="0 0 14 18" fill="none" xmlns="http://www.w3.org/2000/svg">
<path d="M3.75 4.5C3.94891 4.5 4.13968 4.42098 4.28033 4.28033C4.42098 4.13968 4.5 3.94891 4.5 3.75C4.5 3.55109 4.42098 3.36032 4.28033 3.21967C4.13968 3.07902 3.94891 3 3.75 3C3.55109 3 3.36032 3.07902 3.21967 3.21967C3.07902 3.36032 3 3.55109 3 3.75C3 3.94891 3.07902 4.13968 3.21967 4.28033C3.36032 4.42098 3.55109 4.5 3.75 4.5ZM4.5 7.5C4.5 7.69891 4.42098 7.88968 4.28033 8.03033C4.13968 8.17098 3.94891 8.25 3.75 8.25C3.55109 8.25 3.36032 8.17098 3.21967 8.03033C3.07902 7.88968 3 7.69891 3 7.5C3 7.30109 3.07902 7.11032 3.21967 6.96967C3.36032 6.82902 3.55109 6.75 3.75 6.75C3.94891 6.75 4.13968 6.82902 4.28033 6.96967C4.42098 7.11032 4.5 7.30109 4.5 7.5ZM3.75 12C3.94891 12 4.13968 11.921 4.28033 11.7803C4.42098 11.6397 4.5 11.4489 4.5 11.25C4.5 11.0511 4.42098 10.8603 4.28033 10.7197C4.13968 10.579 3.94891 10.5 3.75 10.5C3.55109 10.5 3.36032 10.579 3.21967 10.7197C3.07902 10.8603 3 11.0511 3 11.25C3 11.4489 3.07902 11.6397 3.21967 11.7803C3.36032 11.921 3.55109 12 3.75 12ZM7.5 3.75C7.5 3.94891 7.42098 4.13968 7.28033 4.28033C7.13968 4.42098 6.94891 4.5 6.75 4.5C6.55109 4.5 6.36032 4.42098 6.21967 4.28033C6.07902 4.13968 6 3.94891 6 3.75C6 3.55109 6.07902 3.36032 6.21967 3.21967C6.36032 3.07902 6.55109 3 6.75 3C6.94891 3 7.13968 3.07902 7.28033 3.21967C7.42098 3.36032 7.5 3.55109 7.5 3.75ZM6.75 8.25C6.94891 8.25 7.13968 8.17098 7.28033 8.03033C7.42098 7.88968 7.5 7.69891 7.5 7.5C7.5 7.30109 7.42098 7.11032 7.28033 6.96967C7.13968 6.82902 6.94891 6.75 6.75 6.75C6.55109 6.75 6.36032 6.82902 6.21967 6.96967C6.07902 7.11032 6 7.30109 6 7.5C6 7.69891 6.07902 7.88968 6.21967 8.03033C6.36032 8.17098 6.55109 8.25 6.75 8.25ZM7.5 11.25C7.5 11.4489 7.42098 11.6397 7.28033 11.7803C7.13968 11.921 6.94891 12 6.75 12C6.55109 12 6.36032 11.921 6.21967 11.7803C6.07902 11.6397 6 11.4489 6 11.25C6 11.0511 6.07902 10.8603 6.21967 10.7197C6.36032 10.579 6.55109 10.5 6.75 10.5C6.94891 10.5 7.13968 10.579 7.28033 10.7197C7.42098 10.8603 7.5 11.0511 7.5 11.25ZM9.75 12C9.94891 12 10.1397 11.921 10.2803 11.7803C10.421 11.6397 10.5 11.4489 10.5 11.25C10.5 11.0511 10.421 10.8603 10.2803 10.7197C10.1397 10.579 9.94891 10.5 9.75 10.5C9.55109 10.5 9.36032 10.579 9.21967 10.7197C9.07902 10.8603 9 11.0511 9 11.25C9 11.4489 9.07902 11.6397 9.21967 11.7803C9.36032 11.921 9.55109 12 9.75 12ZM2.25 0C1.65326 0 1.08097 0.237053 0.659009 0.65901C0.237053 1.08097 0 1.65326 0 2.25V17.25C0 17.4489 0.0790178 17.6397 0.21967 17.7803C0.360322 17.921 0.551088 18 0.75 18H12.75C12.9489 18 13.1397 17.921 13.2803 17.7803C13.421 17.6397 13.5 17.4489 13.5 17.25V9.75C13.5 9.15326 13.2629 8.58097 12.841 8.15901C12.419 7.73705 11.8467 7.5 11.25 7.5H10.5V2.25C10.5 1.65326 10.2629 1.08097 9.84099 0.65901C9.41903 0.237053 8.84674 0 8.25 0H2.25ZM1.5 2.25C1.5 2.05109 1.57902 1.86032 1.71967 1.71967C1.86032 1.57902 2.05109 1.5 2.25 1.5H8.25C8.44891 1.5 8.63968 1.57902 8.78033 1.71967C8.92098 1.86032 9 2.05109 9 2.25V8.25C9 8.44891 9.07902 8.63968 9.21967 8.78033C9.36032 8.92098 9.55109 9 9.75 9H11.25C11.4489 9 11.6397 9.07902 11.7803 9.21967C11.921 9.36032 12 9.55109 12 9.75V16.5H10.5V14.25C10.5 14.0511 10.421 13.8603 10.2803 13.7197C10.1397 13.579 9.94891 13.5 9.75 13.5H3.75C3.55109 13.5 3.36032 13.579 3.21967 13.7197C3.07902 13.8603 3 14.0511 3 14.25V16.5H1.5V2.25ZM9 15V16.5H7.5045V15H9ZM6.0045 15V16.5H4.5V15H6.0045Z" fill="#003366"/>
</svg>
