<svg width="13" height="13" viewBox="0 0 13 13" fill="none" xmlns="http://www.w3.org/2000/svg">
<path d="M11.0819 0.219645C11.3749 -0.0731536 11.8497 -0.0732542 12.1425 0.219645C12.4352 0.512515 12.4352 0.987335 12.1425 1.28019L7.24015 6.17961L12.1425 11.0819C12.4352 11.3749 12.4353 11.8497 12.1425 12.1425C11.8497 12.4353 11.3749 12.4352 11.0819 12.1425L6.18058 7.24113L1.28019 12.1425C0.987328 12.4352 0.512508 12.4352 0.219645 12.1425C-0.0732093 11.8496 -0.073131 11.3749 0.219645 11.0819L5.11906 6.18058L0.219645 1.28019C-0.0732038 0.987287 -0.0732259 0.512514 0.219645 0.219645C0.512549 -0.0732038 0.987322 -0.0732259 1.28019 0.219645L6.17961 5.12004L11.0819 0.219645Z" fill="#757575"/>
</svg>
