<svg width="20" height="20" viewBox="0 0 20 20" fill="none" xmlns="http://www.w3.org/2000/svg">
<g clip-path="url(#clip0_138_796)">
<path d="M9.25 5C9.25 4.58579 9.58579 4.25 10 4.25C10.4142 4.25 10.75 4.58579 10.75 5V9.25H15C15.4142 9.25 15.75 9.58579 15.75 10C15.75 10.4142 15.4142 10.75 15 10.75H10C9.58579 10.75 9.25 10.4142 9.25 10V5Z" fill="#003366"/>
<path d="M17.5837 9.99966C17.5836 5.81153 14.1879 2.41666 9.99976 2.41666C5.81173 2.41683 2.41692 5.81164 2.41675 9.99966C2.41675 14.1878 5.81162 17.5835 9.99976 17.5836C14.188 17.5836 17.5837 14.188 17.5837 9.99966ZM19.0837 9.99966C19.0837 15.0164 15.0165 19.0836 9.99976 19.0836C4.98319 19.0835 0.916748 15.0163 0.916748 9.99966C0.916924 4.98321 4.9833 0.916832 9.99976 0.916656C15.0164 0.916656 19.0836 4.9831 19.0837 9.99966Z" fill="#003366"/>
</g>
<defs>
<clipPath id="clip0_138_796">
<rect width="20" height="20" fill="white"/>
</clipPath>
</defs>
</svg>
