<svg width="20" height="20" viewBox="0 0 20 20" fill="none" xmlns="http://www.w3.org/2000/svg">
<path d="M5.99976 4.99966V1.66666C5.99976 1.29847 6.29856 0.999664 6.66675 0.999664C7.03494 0.999664 7.33374 1.29847 7.33374 1.66666V4.99966C7.33374 5.36785 7.03494 5.66666 6.66675 5.66666C6.29856 5.66666 5.99976 5.36785 5.99976 4.99966Z" fill="#003366"/>
<path d="M12.6663 4.99966V1.66666C12.6663 1.29847 12.9651 0.999664 13.3333 0.999664C13.7014 0.999664 14.0002 1.29847 14.0002 1.66666V4.99966C14.0002 5.36785 13.7014 5.66666 13.3333 5.66666C12.9651 5.66666 12.6663 5.36785 12.6663 4.99966Z" fill="#003366"/>
<path d="M16.833 5.00034C16.833 4.44805 16.3853 4.00034 15.833 4.00034H4.16699C3.61471 4.00034 3.16699 4.44805 3.16699 5.00034V16.6664C3.16699 17.2186 3.61471 17.6664 4.16699 17.6664H15.833C16.3853 17.6664 16.833 17.2186 16.833 16.6664V5.00034ZM18.167 16.6664C18.167 17.955 17.1217 19.0003 15.833 19.0003H4.16699C2.87833 19.0003 1.83301 17.955 1.83301 16.6664V5.00034C1.83301 3.71167 2.87833 2.66635 4.16699 2.66635H15.833C17.1217 2.66635 18.167 3.71167 18.167 5.00034V16.6664Z" fill="#003366"/>
<path d="M17.5 7.66635C17.8682 7.66635 18.167 7.96515 18.167 8.33334C18.167 8.70153 17.8682 9.00034 17.5 9.00034H2.5C2.13181 9.00034 1.83301 8.70153 1.83301 8.33334C1.83301 7.96515 2.13181 7.66635 2.5 7.66635H17.5Z" fill="#003366"/>
</svg>
