<svg width="93" height="93" viewBox="0 0 93 93" fill="none" xmlns="http://www.w3.org/2000/svg">
<path d="M46.5 50.158L63.271 66.929C63.7532 67.4112 64.3457 67.6696 65.0483 67.704C65.751 67.7384 66.3779 67.4801 66.929 66.929C67.4801 66.3779 67.7557 65.7682 67.7557 65.1C67.7557 64.4318 67.4801 63.8221 66.929 63.271L50.158 46.5L66.929 29.729C67.4112 29.2468 67.6695 28.6543 67.704 27.9517C67.7384 27.249 67.4801 26.6221 66.929 26.071C66.3779 25.5199 65.7682 25.2443 65.1 25.2443C64.4318 25.2443 63.8221 25.5199 63.271 26.071L46.5 42.842L29.729 26.071C29.2468 25.5888 28.6543 25.3304 27.9517 25.296C27.249 25.2616 26.6221 25.5199 26.071 26.071C25.5199 26.6221 25.2443 27.2318 25.2443 27.9C25.2443 28.5682 25.5199 29.1779 26.071 29.729L42.842 46.5L26.071 63.271C25.5888 63.7532 25.3304 64.3474 25.296 65.0535C25.2616 65.7527 25.5199 66.3779 26.071 66.929C26.6221 67.4801 27.2318 67.7557 27.9 67.7557C28.5682 67.7557 29.1779 67.4801 29.729 66.929L46.5 50.158ZM46.5155 93C40.0847 93 34.0397 91.7807 28.3805 89.342C22.7213 86.8999 17.7974 83.5863 13.609 79.4013C9.42055 75.2163 6.10528 70.2977 3.66317 64.6453C1.22106 58.993 0 52.9497 0 46.5155C0 40.0813 1.22106 34.0363 3.66317 28.3805C6.10183 22.7213 9.41022 17.7974 13.5883 13.609C17.7664 9.42055 22.6868 6.10528 28.3495 3.66317C34.0122 1.22106 40.0572 0 46.4845 0C52.9118 0 58.9568 1.22106 64.6195 3.66317C70.2787 6.10183 75.2025 9.41194 79.391 13.5935C83.5794 17.7751 86.8947 22.6954 89.3368 28.3547C91.7789 34.0139 93 40.0572 93 46.4845C93 52.9118 91.7807 58.9568 89.342 64.6195C86.9033 70.2822 83.5898 75.206 79.4013 79.391C75.2129 83.576 70.2942 86.8913 64.6453 89.3368C58.9964 91.7824 52.9532 93.0034 46.5155 93ZM46.5 87.8333C58.0389 87.8333 67.8125 83.8292 75.8208 75.8208C83.8292 67.8125 87.8333 58.0389 87.8333 46.5C87.8333 34.9611 83.8292 25.1875 75.8208 17.1792C67.8125 9.17083 58.0389 5.16667 46.5 5.16667C34.9611 5.16667 25.1875 9.17083 17.1792 17.1792C9.17083 25.1875 5.16667 34.9611 5.16667 46.5C5.16667 58.0389 9.17083 67.8125 17.1792 75.8208C25.1875 83.8292 34.9611 87.8333 46.5 87.8333Z" fill="#B3261E"/>
</svg>
