<svg width="18" height="17" viewBox="0 0 18 17" fill="none" xmlns="http://www.w3.org/2000/svg">
<path d="M0 13.25V12.2539C5.05051e-05 11.8397 0.335818 11.5039 0.75 11.5039C1.16418 11.5039 1.49995 11.8397 1.5 12.2539V13.25C1.5 13.8467 1.73722 14.4189 2.15918 14.8408C2.58114 15.2628 3.15326 15.5 3.75 15.5H13.75C14.3467 15.5 14.9189 15.2628 15.3408 14.8408C15.7628 14.4189 16 13.8467 16 13.25V12.25C16 11.8358 16.3358 11.5 16.75 11.5C17.1642 11.5 17.5 11.8358 17.5 12.25V13.25C17.5 14.2446 17.1046 15.1981 16.4014 15.9014C15.6981 16.6046 14.7446 17 13.75 17H3.75C2.75544 17 1.80189 16.6046 1.09863 15.9014C0.395371 15.1981 0 14.2446 0 13.25ZM8 0.75C8 0.335786 8.33579 0 8.75 0C9.16421 0 9.5 0.335786 9.5 0.75V9.93945L11.7197 7.71973C12.0126 7.42683 12.4874 7.42683 12.7803 7.71973C13.0732 8.01262 13.0732 8.48738 12.7803 8.78027L9.28027 12.2803C8.98738 12.5732 8.51262 12.5732 8.21973 12.2803L4.71973 8.78027C4.42683 8.48738 4.42683 8.01262 4.71973 7.71973C5.01262 7.42683 5.48738 7.42683 5.78027 7.71973L8 9.93945V0.75Z" fill="#F8F9FA"/>
</svg>
