<svg width="88" height="98" viewBox="0 0 88 98" fill="none" xmlns="http://www.w3.org/2000/svg">
<path d="M72.625 25.667H15.375V85.167C15.3751 87.2411 16.2021 89.2324 17.6777 90.7021C19.1538 92.1723 21.1582 93 23.25 93H64.75C66.8418 93 68.8462 92.1723 70.3223 90.7021C71.7979 89.2324 72.6249 87.2411 72.625 85.167V25.667ZM31.125 74.833V43.833C31.1252 42.4524 32.2444 41.333 33.625 41.333C35.0056 41.333 36.1248 42.4524 36.125 43.833V74.833C36.125 76.2137 35.0057 77.333 33.625 77.333C32.2443 77.333 31.125 76.2137 31.125 74.833ZM51.875 74.833V43.833C51.8752 42.4524 52.9944 41.333 54.375 41.333C55.7556 41.333 56.8748 42.4524 56.875 43.833V74.833C56.875 76.2137 55.7557 77.333 54.375 77.333C52.9943 77.333 51.875 76.2137 51.875 74.833ZM22.1152 20.667H65.8848L58.0195 5H29.9805L22.1152 20.667ZM77.625 85.167C77.6249 88.5737 76.2661 91.8393 73.8506 94.2451C71.4353 96.6506 68.1614 98 64.75 98H23.25C19.8386 98 16.5647 96.6506 14.1494 94.2451C11.7339 91.8393 10.3751 88.5737 10.375 85.167V25.667H2.5C1.1194 25.667 0.000176252 24.5476 0 23.167C0 21.7863 1.11929 20.667 2.5 20.667H16.5195L26.2031 1.37793L26.2881 1.22363C26.7361 0.468855 27.5512 0 28.4375 0H59.5625C60.5079 0 61.3726 0.533125 61.7969 1.37793L71.4805 20.667H85.5C86.8807 20.667 88 21.7863 88 23.167C87.9998 24.5476 86.8806 25.667 85.5 25.667H77.625V85.167Z" fill="#B3261E"/>
</svg>
