<svg width="17" height="20" viewBox="0 0 17 20" fill="none" xmlns="http://www.w3.org/2000/svg">
<path d="M0 16.1787V3.32031C0 1.6732 1.06648 0 2.75 0H9.75C10.1642 0 10.5 0.335786 10.5 0.75C10.5 1.16421 10.1642 1.5 9.75 1.5H2.75C2.22352 1.5 1.5 2.12943 1.5 3.32031V16.1787C1.5 17.3708 2.22368 18 2.75 18H9.74609C10.1603 18.0001 10.4961 18.3358 10.4961 18.75C10.4961 19.1642 10.1603 19.4999 9.74609 19.5H2.75C1.06632 19.5 0 17.8266 0 16.1787ZM11.7197 5.71973C12.0126 5.42683 12.4874 5.42683 12.7803 5.71973L16.2578 9.19727C16.2773 9.21533 16.295 9.23485 16.3125 9.25488C16.3239 9.26784 16.3343 9.2814 16.3447 9.29492C16.4404 9.42082 16.5 9.57579 16.5 9.74609C16.5 9.78876 16.4951 9.83037 16.4883 9.87109C16.4639 10.0208 16.3957 10.1648 16.2803 10.2803L12.7803 13.7803C12.4874 14.0732 12.0126 14.0732 11.7197 13.7803C11.4268 13.4874 11.4268 13.0126 11.7197 12.7197L13.9434 10.4961H5.75C5.33582 10.4961 5.00005 10.1603 5 9.74609C5 9.33188 5.33579 8.99609 5.75 8.99609H13.9355L11.7197 6.78027C11.4268 6.48738 11.4268 6.01262 11.7197 5.71973Z" fill="#1E1E1E"/>
</svg>
