<svg width="16" height="13" viewBox="0 0 16 13" fill="none" xmlns="http://www.w3.org/2000/svg">
<path d="M2.33068 3.6659C2.33081 3.03385 2.49433 2.41255 2.80536 1.86232C3.11639 1.31209 3.56438 0.851602 4.10584 0.525546C4.6473 0.199489 5.26386 0.0189369 5.89567 0.00141025C6.52749 -0.0161164 7.1531 0.129978 7.71181 0.425515C8.27052 0.721053 8.74334 1.156 9.0844 1.68814C9.42545 2.22028 9.62316 2.83155 9.65833 3.46263C9.6935 4.09371 9.56495 4.72316 9.28513 5.28991C9.00532 5.85665 8.58375 6.34144 8.06135 6.69724C9.18635 7.10986 10.1621 7.84971 10.8631 8.82157C11.5641 9.79344 11.9582 10.9528 11.9947 12.1506C11.9931 12.2797 11.9417 12.4032 11.8512 12.4954C11.7607 12.5875 11.6382 12.6411 11.5091 12.645C11.38 12.6489 11.2544 12.6027 11.1585 12.5162C11.0627 12.4296 11.004 12.3094 10.9947 12.1806C10.955 10.8815 10.411 9.64901 9.47813 8.74418C8.54522 7.83934 7.29665 7.3333 5.99701 7.3333C4.69738 7.3333 3.44881 7.83934 2.5159 8.74418C1.58299 9.64901 1.03905 10.8815 0.999348 12.1806C0.992673 12.3111 0.935133 12.4339 0.839054 12.5225C0.742975 12.6112 0.616 12.6587 0.48533 12.6548C0.35466 12.651 0.230689 12.5961 0.139975 12.502C0.0492614 12.4079 -0.000979936 12.282 1.44852e-05 12.1512C0.0363821 10.9534 0.430419 9.79384 1.13141 8.82185C1.83239 7.84985 2.80824 7.1099 3.93335 6.69724C3.4394 6.36083 3.03517 5.90878 2.75584 5.38045C2.47651 4.85212 2.33056 4.26353 2.33068 3.6659ZM5.99735 0.999236C5.2901 0.999236 4.61183 1.28019 4.11173 1.78028C3.61163 2.28038 3.33068 2.95866 3.33068 3.6659C3.33068 4.37315 3.61163 5.05142 4.11173 5.55152C4.61183 6.05162 5.2901 6.33257 5.99735 6.33257C6.70459 6.33257 7.38287 6.05162 7.88297 5.55152C8.38306 5.05142 8.66401 4.37315 8.66401 3.6659C8.66401 2.95866 8.38306 2.28038 7.88297 1.78028C7.38287 1.28019 6.70459 0.999236 5.99735 0.999236ZM11.524 3.6659C11.4258 3.6659 11.3293 3.67257 11.2347 3.6859C11.1686 3.69774 11.1008 3.69614 11.0353 3.6812C10.9699 3.66626 10.9081 3.63829 10.8537 3.59896C10.7992 3.55963 10.7533 3.50974 10.7186 3.45226C10.6839 3.39479 10.6611 3.33091 10.6516 3.26444C10.6421 3.19797 10.6461 3.13027 10.6633 3.06537C10.6805 3.00048 10.7107 2.93972 10.7519 2.88672C10.7931 2.83372 10.8446 2.78957 10.9033 2.7569C10.9619 2.72423 11.0266 2.70371 11.0933 2.69657C11.7564 2.6007 12.4325 2.72803 13.0153 3.05852C13.598 3.389 14.0543 3.90388 14.3124 4.52212C14.5705 5.14036 14.6157 5.82686 14.4408 6.47359C14.266 7.12032 13.8811 7.69056 13.3467 8.09457C14.1323 8.44633 14.7993 9.0179 15.2673 9.74032C15.7352 10.4627 15.9842 11.3052 15.984 12.1659C15.984 12.2985 15.9313 12.4257 15.8376 12.5195C15.7438 12.6132 15.6166 12.6659 15.484 12.6659C15.3514 12.6659 15.2242 12.6132 15.1305 12.5195C15.0367 12.4257 14.984 12.2985 14.984 12.1659C14.9843 11.4219 14.7447 10.6977 14.3008 10.1006C13.857 9.50351 13.2325 9.0654 12.52 8.85124L12.164 8.74457V7.62724L12.4373 7.4879C12.8425 7.28266 13.1667 6.94687 13.3576 6.53473C13.5484 6.12259 13.5948 5.65816 13.4892 5.21641C13.3837 4.77466 13.1323 4.38138 12.7757 4.10005C12.4192 3.81873 11.9782 3.66578 11.524 3.6659Z" fill="#003366"/>
</svg>
