<svg width="19" height="19" viewBox="0 0 19 19" fill="none" xmlns="http://www.w3.org/2000/svg">
<path d="M16 8.5C16 7.51513 15.8066 6.53979 15.4297 5.62988C15.0528 4.71993 14.5002 3.89274 13.8037 3.19629C13.1073 2.49993 12.28 1.94817 11.3701 1.57129C10.4602 1.1944 9.4849 1 8.5 1C7.51513 1.00003 6.53979 1.19439 5.62988 1.57129C4.72001 1.94821 3.89269 2.49989 3.19629 3.19629C1.78978 4.6028 1.00005 6.5109 1 8.5C1 10.4891 1.78986 12.3972 3.19629 13.8037C4.6028 15.2102 6.5109 15.9999 8.5 16C10.4892 16 12.3972 15.2103 13.8037 13.8037C14.5002 13.1073 15.0528 12.2801 15.4297 11.3701C15.8065 10.4602 16 9.48483 16 8.5ZM17 8.5C17 9.61619 16.7806 10.7217 16.3535 11.7529C15.9902 12.6299 15.4816 13.4377 14.8525 14.1455L18.8535 18.1465C19.0488 18.3417 19.0488 18.6583 18.8535 18.8535C18.6583 19.0488 18.3417 19.0488 18.1465 18.8535L14.1455 14.8525C12.5941 16.2314 10.5871 17 8.5 17C6.24568 16.9999 4.08331 16.1048 2.48926 14.5107C0.895289 12.9167 2.9801e-08 10.7543 0 8.5C5.45526e-05 6.24568 0.895209 4.08331 2.48926 2.48926C3.27848 1.70003 4.21592 1.07463 5.24707 0.647461C6.2783 0.220312 7.38381 2.70473e-05 8.5 0C9.61626 0 10.7216 0.220286 11.7529 0.647461C12.7841 1.0746 13.7215 1.70004 14.5107 2.48926C15.3 3.27853 15.9263 4.21584 16.3535 5.24707C16.7807 6.2783 17 7.38381 17 8.5Z" fill="#737070"/>
</svg>
