<svg width="22" height="22" viewBox="0 0 22 22" fill="none" xmlns="http://www.w3.org/2000/svg">
<path d="M20 10.75C20 5.64121 15.8588 1.5 10.75 1.5C5.64121 1.5 1.5 5.64121 1.5 10.75C1.5 15.8588 5.64121 20 10.75 20C15.8588 20 20 15.8588 20 10.75ZM10.7578 14C11.172 14 11.5078 14.3358 11.5078 14.75C11.5078 15.1642 11.172 15.5 10.7578 15.5H10.75C10.3358 15.5 10 15.1642 10 14.75C10 14.3358 10.3358 14 10.75 14H10.7578ZM10 11.75V6.75C10 6.33579 10.3358 6 10.75 6C11.1642 6 11.5 6.33579 11.5 6.75V11.75C11.5 12.1642 11.1642 12.5 10.75 12.5C10.3358 12.5 10 12.1642 10 11.75ZM21.5 10.75C21.5 16.6872 16.6872 21.5 10.75 21.5C4.81279 21.5 0 16.6872 0 10.75C0 4.81279 4.81279 0 10.75 0C16.6872 0 21.5 4.81279 21.5 10.75Z" fill="#B3261E"/>
</svg>
